Coordinates
version=1
nRows=16
nColumns=63
inDegrees=yes

Units are S.I. units (second, meters, Newtons, ...)
If the header above contains a line with 'inDegrees', this indicates whether rotational values are in degrees (yes) or radians (no).

endheader
time	pelvis_tilt	pelvis_list	pelvis_rotation	pelvis_tx	pelvis_ty	pelvis_tz	hip_flexion_r	hip_adduction_r	hip_rotation_r	knee_angle_r	knee_angle_r_beta	ankle_angle_r	subtalar_angle_r	mtp_angle_r	hip_flexion_l	hip_adduction_l	hip_rotation_l	knee_angle_l	knee_angle_l_beta	ankle_angle_l	subtalar_angle_l	mtp_angle_l	L5_S1_Flex_Ext	L5_S1_Lat_Bending	L5_S1_axial_rotation	L4_L5_Flex_Ext	L4_L5_Lat_Bending	L4_L5_axial_rotation	L3_L4_Flex_Ext	L3_L4_Lat_Bending	L3_L4_axial_rotation	L2_L3_Flex_Ext	L2_L3_Lat_Bending	L2_L3_axial_rotation	L1_L2_Flex_Ext	L1_L2_Lat_Bending	L1_L2_axial_rotation	L1_T12_Flex_Ext	L1_T12_Lat_Bending	L1_T12_axial_rotation	Abs_r3	Abs_r2	Abs_r1	Abs_t1	Abs_t2	neck_flexion	neck_bending	neck_rotation	arm_flex_r	arm_add_r	arm_rot_r	elbow_flex_r	pro_sup_r	wrist_flex_r	wrist_dev_r	arm_flex_l	arm_add_l	arm_rot_l	elbow_flex_l	pro_sup_l	wrist_flex_l	wrist_dev_l
1.440678	4.918529	-2.829781	94.481699	-0.117790	0.763929	0.639597	1.315789	1.031353	-11.204292	13.727838	0.239596	30.312502	5.230173	0.000000	-0.510599	-2.704420	0.196561	6.927232	0.120903	31.473683	6.482301	0.000000	-0.386027	0.513494	1.035962	-0.716891	0.682947	1.100710	-0.634204	1.248509	1.100710	-0.441190	1.248509	0.906467	-0.358465	1.047117	0.841719	-0.220576	0.795402	0.776972	-2.757352	5.808744	5.761712	0.000000	0.000000	16.633527	-8.595875	19.134672	3.340587	-15.410126	84.758116	11.109069	27.599865	2.251075	-13.554239	47.780932	-17.387491	20.579628	150.374406	82.728044	37.675256	13.364571
1.457627	5.098843	-2.884465	95.263746	-0.119549	0.763375	0.638975	1.285486	1.140035	-11.865083	13.745418	0.239903	30.417404	5.176297	0.000000	-0.224877	-2.864072	0.588527	7.280223	0.127064	31.896744	6.918577	0.000000	-0.367307	0.560710	0.908083	-0.682125	0.745745	0.964838	-0.603448	1.363311	0.964838	-0.419795	1.363311	0.794573	-0.341081	1.143400	0.737817	-0.209879	0.868540	0.681062	-2.623635	6.342866	5.050485	0.000000	0.000000	17.190487	-8.878485	19.653229	1.992969	-16.083769	73.778981	14.073164	35.966528	1.614446	-10.854964	47.456365	-17.291072	19.469876	150.168053	83.252009	36.923330	15.020741
1.474576	5.273097	-2.919377	95.971167	-0.121229	0.762766	0.638412	1.277872	1.243916	-12.437602	13.829833	0.241376	30.540578	5.063945	0.000000	0.058435	-3.023253	0.849592	7.682187	0.134079	32.392440	7.427937	0.000000	-0.351841	0.608700	0.794981	-0.653405	0.809571	0.844668	-0.578040	1.479994	0.844668	-0.402120	1.479994	0.695609	-0.326720	1.241262	0.645922	-0.201042	0.942877	0.596236	-2.513168	6.885739	4.421447	0.000000	0.000000	17.504162	-9.126558	20.270156	0.627092	-16.795044	62.771920	16.984610	44.521102	0.998972	-8.025519	47.194476	-17.088783	18.087488	149.737678	83.911143	35.960773	17.118134
1.491525	5.427152	-2.939284	96.587038	-0.122763	0.762122	0.637917	1.302064	1.328572	-12.910407	13.986161	0.244105	30.682873	4.902241	0.000000	0.342137	-3.172158	0.949507	8.130696	0.141907	32.950055	8.026705	0.000000	-0.339012	0.654769	0.698419	-0.629579	0.870843	0.742070	-0.556963	1.592006	0.742070	-0.387457	1.592006	0.611116	-0.314807	1.335205	0.567465	-0.193711	1.014237	0.523814	-2.421529	7.406879	3.884396	0.000000	0.000000	17.546279	-9.328764	21.042314	-0.693287	-17.522876	52.125874	19.755510	53.031936	0.384727	-5.198509	46.962601	-16.802705	16.446263	149.053920	84.641020	34.927973	19.342702
1.508475	5.554068	-2.940973	97.111676	-0.124156	0.761469	0.637511	1.358743	1.385325	-13.291659	14.220499	0.248195	30.840976	4.682798	0.000000	0.619144	-3.303984	0.894093	8.614808	0.150357	33.544576	8.708997	0.000000	-0.329625	0.697528	0.620041	-0.612147	0.927713	0.658793	-0.541541	1.695970	0.658793	-0.376728	1.695970	0.542536	-0.306090	1.422400	0.503783	-0.188348	1.080471	0.465031	-2.354478	7.890579	3.448481	0.000000	0.000000	17.305244	-9.481408	21.958211	-1.921169	-18.253398	42.157105	22.308483	61.235152	-0.242796	-2.507431	46.731064	-16.429195	14.574456	148.133400	85.354264	33.932137	21.494787
1.525424	5.651808	-2.917668	97.553820	-0.125380	0.760842	0.637178	1.437163	1.414949	-13.586025	14.529515	0.253588	31.002811	4.401135	0.000000	0.877248	-3.420474	0.713674	9.125957	0.159278	34.150404	9.453209	0.000000	-0.324246	0.735508	0.557739	-0.602156	0.978225	0.592597	-0.532703	1.788313	0.592597	-0.370580	1.788313	0.488021	-0.301094	1.499847	0.453163	-0.185274	1.139301	0.418304	-2.316054	8.320208	3.101975	0.000000	0.000000	16.788310	-9.597651	23.013709	-3.015152	-18.959311	33.196215	24.570010	68.879793	-0.917977	-0.049339	46.478672	-15.975794	12.490513	147.007197	85.968315	33.176008	23.337453
1.542373	5.729501	-2.871108	97.865071	-0.126397	0.760257	0.636932	1.544903	1.423873	-13.771106	14.916945	0.260350	31.162819	4.076490	0.000000	1.100609	-3.526337	0.370077	9.636578	0.168190	34.741948	10.235471	0.000000	-0.323290	0.768323	0.520415	-0.600382	1.021870	0.552941	-0.531133	1.868102	0.552941	-0.369488	1.868102	0.455363	-0.300207	1.566765	0.422837	-0.184728	1.190133	0.390311	-2.309228	8.691428	2.894390	0.000000	0.000000	16.015935	-9.653526	24.177324	-3.934782	-19.632221	25.585254	26.470912	75.710591	-1.596365	2.118088	46.200442	-15.475466	10.324282	145.766813	86.414746	32.505893	24.866710
1.559322	5.777258	-2.797239	97.999099	-0.127170	0.759730	0.636755	1.683917	1.400448	-13.796919	15.394314	0.268681	31.327222	3.713940	0.000000	1.269427	-3.607554	-0.161517	10.131265	0.176824	35.309202	11.042428	0.000000	-0.327301	0.794297	0.512280	-0.607831	1.056415	0.544297	-0.537723	1.931253	0.544297	-0.374073	1.931253	0.448245	-0.303932	1.619730	0.416227	-0.187020	1.230366	0.384210	-2.337881	8.985245	2.849147	0.000000	0.000000	15.002812	-9.653977	25.455436	-4.643698	-20.249669	19.638506	27.935420	81.468677	-2.251043	3.920294	45.872061	-14.984251	8.182874	144.530185	86.643883	31.714044	26.233591
1.576271	5.808047	-2.716010	98.122472	-0.127841	0.759257	0.636628	1.829301	1.354736	-13.876656	15.892808	0.277382	31.481287	3.392388	0.000000	1.417148	-3.675200	-0.576482	10.591452	0.184856	35.800402	11.687745	0.000000	-0.334380	0.814708	0.495908	-0.620977	1.083561	0.526902	-0.549353	1.980880	0.526902	-0.382163	1.980880	0.433920	-0.310505	1.661352	0.402925	-0.191065	1.261982	0.371931	-2.388443	9.216136	2.758092	0.000000	0.000000	13.850606	-9.645383	26.830740	-5.101154	-20.784341	15.797621	28.892732	85.889815	-2.938962	5.270640	45.505957	-14.565757	6.086436	143.407722	86.851127	30.943807	27.151769
1.593220	5.823012	-2.640141	98.183027	-0.128371	0.758846	0.636530	1.994292	1.293256	-13.912259	16.406582	0.286349	31.615962	3.057049	0.000000	1.537524	-3.724749	-0.973980	10.991191	0.191832	36.219603	12.242323	0.000000	-0.343679	0.829469	0.479208	-0.638247	1.103193	0.509159	-0.564631	2.016770	0.509159	-0.392791	2.016770	0.419307	-0.319141	1.691453	0.389357	-0.196378	1.284847	0.359406	-2.454868	9.383116	2.665212	0.000000	0.000000	12.605994	-9.609964	28.269207	-5.280731	-21.225228	14.261868	29.264258	88.703933	-3.486564	6.114883	45.121393	-14.248611	4.165257	142.505607	86.960830	30.144318	27.814808
1.610169	5.830532	-2.581975	98.205958	-0.128745	0.758507	0.636453	2.176811	1.230923	-13.910029	16.905478	0.295056	31.721137	2.704634	0.000000	1.640011	-3.764427	-1.327158	11.312474	0.197440	36.561602	12.713890	0.000000	-0.354427	0.838634	0.458480	-0.658207	1.115383	0.487135	-0.582289	2.039054	0.487135	-0.405075	2.039054	0.401170	-0.329121	1.710142	0.372515	-0.202520	1.299043	0.343860	-2.531640	9.486791	2.549926	0.000000	0.000000	11.333666	-9.510560	29.719252	-5.146954	-21.552785	15.338344	28.959711	89.647605	-3.814147	6.382021	44.758003	-14.058809	2.545651	141.869974	86.958357	29.352770	28.158016
1.627119	5.825751	-2.548502	98.212671	-0.128990	0.758255	0.636403	2.373221	1.159376	-13.910372	17.373549	0.303226	31.802981	2.376854	0.000000	1.730000	-3.784528	-1.604328	11.544471	0.201489	36.812737	13.088373	0.000000	-0.366631	0.841760	0.436005	-0.680870	1.119541	0.463255	-0.602337	2.046655	0.463255	-0.419022	2.046655	0.381504	-0.340453	1.716517	0.354254	-0.209493	1.303886	0.327003	-2.618806	9.522156	2.424927	0.000000	0.000000	10.123084	-9.375762	31.070930	-4.695247	-21.736604	19.245446	27.894267	88.415335	-3.892344	5.987114	44.464654	-13.962499	1.311487	141.514224	86.867696	28.742156	28.132266
1.644068	5.799179	-2.549097	98.169452	-0.129039	0.758099	0.636358	2.584139	1.072133	-13.879255	17.790953	0.310511	31.864429	2.088351	0.000000	1.792508	-3.770918	-1.801250	11.648145	0.203298	36.953457	13.325527	0.000000	-0.379509	0.836703	0.421548	-0.704786	1.112815	0.447895	-0.623495	2.034359	0.447895	-0.433741	2.034359	0.368854	-0.352412	1.706204	0.342508	-0.216851	1.296053	0.316161	-2.710795	9.464950	2.344523	0.000000	0.000000	9.044653	-9.186823	32.214897	-3.911845	-21.741612	26.308609	25.980539	84.699869	-3.737485	4.845616	44.281576	-13.930206	0.500668	141.442737	86.703368	28.443859	27.703342
1.661017	5.877306	-2.587885	98.158439	-0.129340	0.757884	0.636436	2.825631	1.057101	-14.031837	18.164533	0.317031	31.921311	2.030875	0.000000	1.898018	-3.841012	-1.980847	11.703700	0.204268	37.097495	13.609301	0.000000	-0.395107	0.847399	0.426434	-0.733753	1.127041	0.453086	-0.649121	2.060367	0.453086	-0.451568	2.060367	0.373130	-0.366896	1.728017	0.346478	-0.225764	1.312622	0.319826	-2.822210	9.585952	2.371700	0.000000	0.000000	8.291848	-9.115342	33.141206	-3.950566	-21.998402	26.921614	26.000321	85.304809	-4.073227	4.919241	44.230594	-13.746024	0.107084	141.657789	86.433493	28.539149	27.054379
1.677966	5.986897	-2.678899	98.143333	-0.129627	0.757699	0.636607	3.103962	1.058173	-14.281656	18.486835	0.322656	31.968002	2.143925	0.000000	2.034967	-3.925931	-2.110278	11.684869	0.203939	37.182583	13.844540	0.000000	-0.410066	0.858668	0.441470	-0.761534	1.142029	0.469062	-0.673698	2.087766	0.469062	-0.468665	2.087766	0.386287	-0.380787	1.750996	0.358695	-0.234312	1.330077	0.331103	-2.929062	9.713426	2.455325	0.000000	0.000000	7.850228	-9.069687	33.732160	-4.058466	-22.199275	27.162603	26.109063	85.796545	-4.346945	4.948976	44.299474	-13.557490	0.188492	142.159057	86.195842	28.751302	26.102389
1.694915	6.128319	-2.814364	98.154873	-0.129914	0.757546	0.636939	3.409608	1.088519	-14.580746	18.743899	0.327143	31.977693	2.312762	0.000000	2.213374	-4.029065	-2.173555	11.617503	0.202764	37.216648	14.031238	0.000000	-0.426488	0.870179	0.458413	-0.792031	1.157339	0.487064	-0.700677	2.115754	0.487064	-0.487433	2.115754	0.401112	-0.396037	1.774470	0.372461	-0.243695	1.347908	0.343810	-3.046362	9.843645	2.549557	0.000000	0.000000	7.775376	-8.996473	33.991657	-4.213998	-22.340445	27.049670	26.295537	86.135584	-4.578541	4.936452	44.515646	-13.310364	0.586540	142.945806	86.019838	29.507571	25.234117
